<mxfile host="app.diagrams.net" modified="2021-09-22T13:36:57.279Z" agent="5.0 (Macintosh; Intel Mac OS X 10_15_7) AppleWebKit/537.36 (KHTML, like Gecko) Chrome/93.0.4577.82 Safari/537.36" etag="RhOPlE7pD9d0n6Y0vISE" version="15.2.9" type="github">
  <diagram name="Page-1" id="58cdce13-f638-feb5-8d6f-7d28b1aa9fa0">
    <mxGraphModel dx="2046" dy="515" grid="1" gridSize="10" guides="1" tooltips="1" connect="1" arrows="1" fold="1" page="1" pageScale="1" pageWidth="1100" pageHeight="850" background="none" math="0" shadow="0">
      <root>
        <mxCell id="0" />
        <mxCell id="1" parent="0" />
        <mxCell id="SyNW_PZ-OfmpCEs9QEIb-1" value="Push/Pull&amp;nbsp;" style="text;html=1;strokeColor=none;fillColor=none;align=center;verticalAlign=middle;whiteSpace=wrap;rounded=0;" vertex="1" parent="1">
          <mxGeometry x="-220" y="390" width="620" height="20" as="geometry" />
        </mxCell>
        <mxCell id="SyNW_PZ-OfmpCEs9QEIb-9" style="edgeStyle=elbowEdgeStyle;html=1;labelBackgroundColor=none;endArrow=open;endSize=8;strokeColor=#ff0000;fontFamily=Verdana;fontSize=12;align=left;" edge="1" parent="1" source="SyNW_PZ-OfmpCEs9QEIb-10" target="SyNW_PZ-OfmpCEs9QEIb-15">
          <mxGeometry relative="1" as="geometry" />
        </mxCell>
        <mxCell id="SyNW_PZ-OfmpCEs9QEIb-10" value="Build" style="rounded=1;whiteSpace=wrap;html=1;arcSize=24;fillColor=#ffffc0;strokeColor=#ff0000;shadow=0;comic=0;labelBackgroundColor=none;fontFamily=Verdana;fontSize=12;fontColor=#000000;align=center;" vertex="1" parent="1">
          <mxGeometry x="120" y="390" width="120" height="60" as="geometry" />
        </mxCell>
        <mxCell id="SyNW_PZ-OfmpCEs9QEIb-11" value="" style="ellipse;html=1;shape=endState;fillColor=#000000;strokeColor=#ff0000;rounded=1;shadow=0;comic=0;labelBackgroundColor=none;fontFamily=Verdana;fontSize=12;fontColor=#000000;align=center;" vertex="1" parent="1">
          <mxGeometry x="880" y="405" width="30" height="30" as="geometry" />
        </mxCell>
        <mxCell id="SyNW_PZ-OfmpCEs9QEIb-12" style="edgeStyle=elbowEdgeStyle;html=1;labelBackgroundColor=none;endArrow=open;endSize=8;strokeColor=#ff0000;fontFamily=Verdana;fontSize=12;align=left;" edge="1" parent="1" source="SyNW_PZ-OfmpCEs9QEIb-13" target="SyNW_PZ-OfmpCEs9QEIb-10">
          <mxGeometry relative="1" as="geometry" />
        </mxCell>
        <mxCell id="SyNW_PZ-OfmpCEs9QEIb-13" value="" style="ellipse;html=1;shape=startState;fillColor=#000000;strokeColor=#ff0000;rounded=1;shadow=0;comic=0;labelBackgroundColor=none;fontFamily=Verdana;fontSize=12;fontColor=#000000;align=center;direction=south;" vertex="1" parent="1">
          <mxGeometry x="30" y="405" width="30" height="30" as="geometry" />
        </mxCell>
        <mxCell id="SyNW_PZ-OfmpCEs9QEIb-14" style="edgeStyle=elbowEdgeStyle;html=1;labelBackgroundColor=none;endArrow=open;endSize=8;strokeColor=#ff0000;fontFamily=Verdana;fontSize=12;align=left;" edge="1" parent="1" source="SyNW_PZ-OfmpCEs9QEIb-15" target="SyNW_PZ-OfmpCEs9QEIb-17">
          <mxGeometry relative="1" as="geometry" />
        </mxCell>
        <mxCell id="SyNW_PZ-OfmpCEs9QEIb-15" value="&lt;span style=&quot;font-family: &amp;#34;helvetica&amp;#34;&quot;&gt;checks out repository for acces&lt;/span&gt;" style="rounded=1;whiteSpace=wrap;html=1;arcSize=24;fillColor=#ffffc0;strokeColor=#ff0000;shadow=0;comic=0;labelBackgroundColor=none;fontFamily=Verdana;fontSize=12;fontColor=#000000;align=center;" vertex="1" parent="1">
          <mxGeometry x="270" y="390" width="120" height="60" as="geometry" />
        </mxCell>
        <mxCell id="SyNW_PZ-OfmpCEs9QEIb-16" style="edgeStyle=elbowEdgeStyle;html=1;labelBackgroundColor=none;endArrow=open;endSize=8;strokeColor=#ff0000;fontFamily=Verdana;fontSize=12;align=left;" edge="1" parent="1" source="SyNW_PZ-OfmpCEs9QEIb-17" target="SyNW_PZ-OfmpCEs9QEIb-11">
          <mxGeometry relative="1" as="geometry" />
        </mxCell>
        <mxCell id="SyNW_PZ-OfmpCEs9QEIb-17" value="dotnet restore" style="rounded=1;whiteSpace=wrap;html=1;arcSize=24;fillColor=#ffffc0;strokeColor=#ff0000;shadow=0;comic=0;labelBackgroundColor=none;fontFamily=Verdana;fontSize=12;fontColor=#000000;align=center;" vertex="1" parent="1">
          <mxGeometry x="420" y="390" width="120" height="60" as="geometry" />
        </mxCell>
        <mxCell id="SyNW_PZ-OfmpCEs9QEIb-19" style="edgeStyle=elbowEdgeStyle;html=1;labelBackgroundColor=none;endArrow=open;endSize=8;strokeColor=#ff0000;fontFamily=Verdana;fontSize=12;align=left;" edge="1" parent="1" target="SyNW_PZ-OfmpCEs9QEIb-20">
          <mxGeometry relative="1" as="geometry">
            <mxPoint x="530" y="420" as="sourcePoint" />
          </mxGeometry>
        </mxCell>
        <mxCell id="SyNW_PZ-OfmpCEs9QEIb-20" value="dotnet build" style="rounded=1;whiteSpace=wrap;html=1;arcSize=24;fillColor=#ffffc0;strokeColor=#ff0000;shadow=0;comic=0;labelBackgroundColor=none;fontFamily=Verdana;fontSize=12;fontColor=#000000;align=center;" vertex="1" parent="1">
          <mxGeometry x="570" y="390" width="120" height="60" as="geometry" />
        </mxCell>
        <mxCell id="SyNW_PZ-OfmpCEs9QEIb-21" style="edgeStyle=elbowEdgeStyle;html=1;labelBackgroundColor=none;endArrow=open;endSize=8;strokeColor=#ff0000;fontFamily=Verdana;fontSize=12;align=left;" edge="1" parent="1" target="SyNW_PZ-OfmpCEs9QEIb-22">
          <mxGeometry relative="1" as="geometry">
            <mxPoint x="690" y="420" as="sourcePoint" />
          </mxGeometry>
        </mxCell>
        <mxCell id="SyNW_PZ-OfmpCEs9QEIb-22" value="dotnet test" style="rounded=1;whiteSpace=wrap;html=1;arcSize=24;fillColor=#ffffc0;strokeColor=#ff0000;shadow=0;comic=0;labelBackgroundColor=none;fontFamily=Verdana;fontSize=12;fontColor=#000000;align=center;" vertex="1" parent="1">
          <mxGeometry x="720" y="390" width="120" height="60" as="geometry" />
        </mxCell>
      </root>
    </mxGraphModel>
  </diagram>
</mxfile>
